<?xml version="1.0" encoding="utf-8"?>
<!-- Generator: Adobe Illustrator 23.0.1, SVG Export Plug-In . SVG Version: 6.00 Build 0)  -->
<svg version="1.1" id="图层_1" xmlns="http://www.w3.org/2000/svg" xmlns:xlink="http://www.w3.org/1999/xlink" x="0px" y="0px"
	 viewBox="0 0 841.89 473.56" style="enable-background:new 0 0 841.89 473.56;" xml:space="preserve">
<style type="text/css">
	.st0{fill:#FFFFFF;}
	.st1{fill:none;}
</style>
<path class="st0" d="M519.08,206.6c10.18,0,18.86,6.53,22.41,15.8h-44.81C500.22,213.13,508.9,206.6,519.08,206.6 M561.64,236.02
	c0.18-1.51,0.27-3.03,0.27-4.6c0-23.45-19.43-42.45-43.41-42.45c-23.99,0-43.44,19-43.44,42.45c0,23.46,19.45,42.46,43.44,42.46
	c18.21,0,33.83-11,40.26-26.58l-18.71-3.28c-4.16,7.58-11.99,12.69-20.97,12.69c-11.89,0-21.74-8.94-23.74-20.7H561.64z"/>
<rect x="441.24" y="190.74" class="st0" width="22.16" height="81.61"/>
<path class="st0" d="M452.31,157.48c-6.83,0-12.34,5.54-12.34,12.36c0,6.81,5.51,12.35,12.34,12.35c6.83,0,12.36-5.53,12.36-12.35
	C464.67,163.02,459.14,157.48,452.31,157.48"/>
<polygon class="st0" points="305.51,164.57 305.51,208.51 257.71,208.51 257.71,164.57 233.47,164.57 233.47,272.3 257.71,272.3 
	257.71,228.35 305.51,228.35 305.51,272.3 329.76,272.3 329.76,164.57 "/>
<path class="st0" d="M384.59,255.99c-13.71,0-24.83-10.99-24.83-24.54c0-13.55,11.12-24.54,24.83-24.54
	c13.69,0,24.82,10.99,24.82,24.54C409.41,245,398.28,255.99,384.59,255.99 M405.59,190.78v4.4c-6.44-3.92-14-6.17-22.08-6.17
	c-23.52,0-42.58,19.01-42.58,42.45c0,23.44,19.06,42.44,42.58,42.44c7.88,0,15.24-2.15,21.56-5.86v4.27h21.65v-81.52H405.59z"/>
<path class="st0" d="M607.74,183.15c-20.4,3.58-35.91,21.36-36.15,42.78l-0.02,46.43h21.24l0.01-47.3
	c0-10.83,8.11-19.77,18.59-21.06L607.74,183.15z"/>
<rect class="st1" width="841.89" height="473.56"/>
</svg>
